#!OML:ASF C:\ViconDB\ViconDB\414\Spring2016\041811\Spring2016.ASF
:FULLY-SPECIFIED
:DEGREES
217
root 7.43615 14.3859 -26.5713 -169.725 -3.6406 -177.998
lowerback 32.0105 0.281989 -0.474146
upperback 4.30092 -1.1061 -0.1163
thorax -11.8033 -1.01412 0.667838
lowerneck -10.0762 -6.16163 -16.8174
upperneck -6.4236 -7.73157 26.4141
head 1.80183 -4.05187 10.8457
rclavicle 3.18055e-015 3.18055e-015
rhumerus -57.1865 -28.1492 -69.7353
rradius 31.1804
rwrist 36.2659
rhand -34.7304 -12.6871
rfingers 7.12502
rthumb -7.88458 -42.52
lclavicle 3.18055e-015 3.18055e-015
lhumerus -48.685 18.0616 68.9939
lradius 16.7563
lwrist -24.8611
lhand -30.3255 17.0209
lfingers 7.12502
lthumb -3.63177 46.9698
rfemur -64.4603 -21.4268 24.3808
rtibia 89.5516
rfoot -1.62445 -13.9671
rtoes -2.1318
lfemur -68.3792 15.306 -15.7299
ltibia 89.9293
lfoot -27.9952 -8.51088
ltoes -14.6553
218
root 7.42981 14.3771 -26.7213 -168.964 -4.02855 -177.868
lowerback 32.0371 0.185429 -0.205837
upperback 4.30604 -1.11885 -0.0146682
thorax -11.8092 -1.0265 0.636479
lowerneck -10.0533 -6.16078 -16.8285
upperneck -7.24904 -7.64849 26.3863
head 1.54715 -4.07042 10.8601
rclavicle -3.18055e-015 -7.15625e-015
rhumerus -54.6907 -25.7234 -73.3195
rradius 32.2741
rwrist 33.6122
rhand -34.9805 -12.7807
rfingers 7.12502
rthumb -8.12598 -42.6044
lclavicle -3.18055e-015 -7.15625e-015
lhumerus -46.6405 14.6946 72.9875
lradius 18.5613
lwrist -21.9727
lhand -31.0129 17.341
lfingers 7.12502
lthumb -4.29562 47.2775
rfemur -64.6327 -21.5392 24.6174
rtibia 89.697
rfoot -1.02833 -14.0615
rtoes -1.42174
lfemur -68.8022 15.0105 -15.5784
ltibia 90.3203
lfoot -28.679 -8.57454
ltoes -14.9888
219
root 7.41863 14.3816 -26.8808 -168.257 -4.23756 -178.092
lowerback 31.9694 0.18979 -0.395701
upperback 4.26814 -1.15337 0.0424931
thorax -11.8203 -1.02654 0.811458
lowerneck -10.0821 -6.16743 -16.7212
upperneck -7.68481 -7.59156 26.0331
head 1.38695 -4.06157 10.7249
rclavicle -5.96354e-015 1.59028e-015
rhumerus -52.3597 -22.6466 -76.7406
rradius 34.0746
rwrist 30.4586
rhand -35.417 -13.4391
rfingers 7.12502
rthumb -8.54718 -43.2462
lclavicle -5.96354e-015 1.59028e-015
lhumerus -44.9511 10.5051 76.987
lradius 21.3323
lwrist -17.8833
lhand -31.8963 18.1304
lfingers 7.12502
lthumb -5.14857 48.0478
rfemur -64.5894 -21.6771 24.3744
rtibia 89.6681
rfoot -0.347662 -14.3513
rtoes -1.27152
lfemur -68.8863 14.7169 -15.8074
ltibia 90.4727
lfoot -29.3961 -8.5408
ltoes -15.6256
220
root 7.40857 14.4056 -27.0455 -167.736 -4.35336 -178.193
lowerback 31.8465 0.271167 -0.503492
upperback 4.26596 -1.06629 0.0961843
thorax -11.7706 -0.977769 0.890671
lowerneck -10.0564 -6.31009 -16.9725
upperneck -8.02915 -7.73912 26.2614
head 1.34681 -4.15728 10.8463
rclavicle -1.23246e-014 -4.77083e-015
rhumerus -50.2466 -19.7253 -79.5815
rradius 36.4464
rwrist 26.8306
rhand -35.7414 -14.0385
rfingers 7.12502
rthumb -8.8603 -43.8325
lclavicle -1.23246e-014 -4.77083e-015
lhumerus -43.4804 7.55093 79.4167
lradius 24.4154
lwrist -15.076
lhand -32.7476 18.3015
lfingers 7.12502
lthumb -5.97058 48.1974
rfemur -64.1752 -21.6951 24.1706
rtibia 89.4251
rfoot 0.260702 -14.6738
rtoes -1.32732
lfemur -68.5717 14.5681 -15.8197
ltibia 90.4078
lfoot -30.0624 -8.58836
ltoes -16.0323
221
root 7.39197 14.4608 -27.2356 -167.446 -4.10549 -178.385
lowerback 31.7327 0.488585 -0.826811
upperback 4.23126 -0.884577 0.0854992
thorax -11.7623 -0.877352 0.982171
lowerneck -10.0398 -6.41545 -17.0541
upperneck -8.05029 -7.85957 26.2328
head 1.36656 -4.21037 10.8387
rclavicle -3.97569e-015 7.15625e-015
rhumerus -48.3093 -16.5617 -81.962
rradius 39.0071
rwrist 22.6187
rhand -35.9583 -14.3842
rfingers 7.12502
rthumb -9.06952 -44.1692
lclavicle -3.97569e-015 7.15625e-015
lhumerus -42.3119 5.0205 81.0316
lradius 28.0387
lwrist -12.5242
lhand -33.1111 18.2117
lfingers 7.12502
lthumb -6.32145 48.0974
rfemur -63.1269 -21.3994 23.6269
rtibia 88.8837
rfoot 0.660599 -14.9844
rtoes -1.0218
lfemur -67.5354 14.6399 -15.9114
ltibia 90.059
lfoot -30.9128 -8.59763
ltoes -16.1881
222
root 7.39464 14.5125 -27.4005 -167.185 -4.41257 -178.336
lowerback 31.7707 0.515279 -0.822018
upperback 4.10116 -0.805435 0.180045
thorax -11.9249 -0.825679 1.05085
lowerneck -9.95199 -6.51779 -16.9891
upperneck -8.04276 -7.9988 26.1495
head 1.37609 -4.27666 10.7828
rclavicle 1.07344e-014 1.70955e-014
rhumerus -46.6327 -14.6144 -83.1595
rradius 41.9778
rwrist 20.0974
rhand -36.2165 -14.679
rfingers 7.12502
rthumb -9.31873 -44.4531
lclavicle 1.07344e-014 1.70955e-014
lhumerus -41.2282 2.52326 82.1009
lradius 32.175
lwrist -10.317
lhand -33.0995 17.8241
lfingers 7.12502
lthumb -6.31023 47.7101
rfemur -62.182 -21.3638 23.6068
rtibia 88.2953
rfoot 1.50712 -15.0412
rtoes -1.40576
lfemur -66.7698 14.3724 -15.5891
ltibia 89.6173
lfoot -31.3584 -8.71882
ltoes -16.2942
223
root 7.39163 14.5803 -27.5873 -166.84 -4.62819 -178.519
lowerback 31.1329 0.584417 -1.17823
upperback 4.11198 -0.77376 0.330848
thorax -11.6414 -0.783765 1.38156
lowerneck -10.0673 -6.55289 -17.1419
upperneck -7.91043 -8.01311 26.0783
head 1.43699 -4.25676 10.7784
rclavicle 2.38542e-015 1.98785e-015
rhumerus -44.7448 -12.1915 -83.9822
rradius 45.2319
rwrist 17.5509
rhand -36.3594 -15.9645
rfingers 7.12502
rthumb -9.45663 -45.7323
lclavicle 2.38542e-015 1.98785e-015
lhumerus -39.9394 0.893963 82.6345
lradius 36.42
lwrist -8.55427
lhand -32.7942 17.2128
lfingers 7.12502
lthumb -6.0155 47.1074
rfemur -61.1016 -21.3895 23.2453
rtibia 87.5207
rfoot 2.04413 -15.0839
rtoes -1.13021
lfemur -65.8127 14.0046 -15.5792
ltibia 88.9751
lfoot -31.851 -8.61171
ltoes -16.5862
224
root 7.38654 14.6703 -27.7902 -166.825 -4.72052 -178.581
lowerback 30.5058 0.603976 -1.27737
upperback 4.55562 -0.759414 0.234728
thorax -11.6598 -0.759755 1.4072
lowerneck -10.1646 -6.57193 -17.0939
upperneck -7.73107 -8.06428 26.1864
head 1.5213 -4.27107 10.7966
rclavicle 7.15625e-015 -3.97569e-016
rhumerus -42.9471 -9.95212 -84.7077
rradius 48.4928
rwrist 15.6502
rhand -37.5472 -16.4235
rfingers 7.12502
rthumb -10.6025 -46.136
lclavicle 7.15625e-015 -3.97569e-016
lhumerus -38.7331 -0.881021 82.4994
lradius 41.008
lwrist -7.13537
lhand -32.3949 16.6656
lfingers 7.12502
lthumb -5.62998 46.5708
rfemur -59.3462 -21.3337 22.8943
rtibia 86.4275
rfoot 2.53824 -15.2251
rtoes -1.01625
lfemur -64.2022 13.7774 -15.392
ltibia 88.0974
lfoot -32.4016 -8.4092
ltoes -16.9781
225
root 7.37616 14.7657 -27.9969 -166.751 -4.76188 -178.808
lowerback 29.8357 0.661611 -1.5769
upperback 4.52312 -0.738421 0.186762
thorax -11.3595 -0.728087 1.50374
lowerneck -10.4074 -6.65965 -17.0437
upperneck -7.33171 -8.20663 26.1951
head 1.70424 -4.30319 10.7602
rclavicle 1.31198e-014 -1.19271e-015
rhumerus -41.1175 -7.84885 -84.8731
rradius 52.0944
rwrist 13.6174
rhand -38.0014 -17.0599
rfingers 7.12502
rthumb -11.0406 -46.7496
lclavicle 1.31198e-014 -1.19271e-015
lhumerus -37.4756 -2.81003 82.1236
lradius 45.674
lwrist -5.87102
lhand -32.0822 15.8863
lfingers 7.12502
lthumb -5.32805 45.7994
rfemur -57.6172 -21.3218 22.3735
rtibia 85.199
rfoot 2.94628 -15.2916
rtoes -0.962479
lfemur -62.5271 13.5029 -15.4862
ltibia 87.0319
lfoot -32.9882 -7.90889
ltoes -17.5321
226
root 7.36884 14.8813 -28.2073 -166.748 -4.89963 -178.811
lowerback 29.1978 0.633074 -1.6337
upperback 4.4073 -0.727993 0.190167
thorax -11.1702 -0.701828 1.52357
lowerneck -10.6651 -6.73112 -16.9807
upperneck -6.80365 -8.33354 26.1329
head 1.91621 -4.31574 10.6957
rclavicle -2.98177e-015 -1.55052e-014
rhumerus -39.401 -5.6369 -84.7365
rradius 56.053
rwrist 11.5275
rhand -38.7113 -17.7918
rfingers 7.12502
rthumb -11.7253 -47.4436
lclavicle -2.98177e-015 -1.55052e-014
lhumerus -36.3962 -4.86697 81.5054
lradius 50.6939
lwrist -4.58104
lhand -32.3288 15.5919
lfingers 7.12502
lthumb -5.56622 45.4988
rfemur -55.6024 -21.2284 22.0972
rtibia 83.6524
rfoot 3.38476 -15.1988
rtoes -0.845348
lfemur -60.7371 13.2033 -15.2826
ltibia 85.7705
lfoot -33.3536 -7.59064
ltoes -18.3594
227
root 7.36077 15.0149 -28.425 -166.819 -5.04767 -178.846
lowerback 28.5134 0.582686 -1.69265
upperback 4.28099 -0.745759 0.169213
thorax -10.9662 -0.688185 1.52675
lowerneck -10.9147 -6.83689 -16.9797
upperneck -6.26496 -8.52094 26.2221
head 2.15811 -4.36174 10.6914
rclavicle 8.54774e-015 -5.56597e-015
rhumerus -37.6836 -3.25378 -84.2319
rradius 60.2088
rwrist 10.0283
rhand -39.0407 -18.2219
rfingers 7.12502
rthumb -12.0429 -47.8554
lclavicle 8.54774e-015 -5.56597e-015
lhumerus -35.1941 -6.92201 80.471
lradius 55.7139
lwrist -3.3765
lhand -32.8299 15.243
lfingers 7.12502
lthumb -6.04999 45.1366
rfemur -53.3501 -21.1287 21.7726
rtibia 81.8929
rfoot 3.73157 -15.055
rtoes -0.740089
lfemur -58.6506 12.788 -15.0584
ltibia 84.2674
lfoot -33.6219 -7.36622
ltoes -17.9675
